{"title":"The Way 2010 x264 RB58.mp4","uid":9814573,"size":884948018,"categoryP":"video","categoryS":"movies_dvdr","magnet":"?xt=urn:btih:16253ca6ddfac5c22ec4fae39afb81b87643ca5b&amp;dn=The+Way+2010+x264+RB58.mp4&amp;tr=udp%3A%2F%2Ftracker.openbittorrent.com%3A80&amp;tr=udp%3A%2F%2Fopen.demonii.com%3A1337&amp;tr=udp%3A%2F%2Ftracker.coppersurfer.tk%3A6969&amp;tr=udp%3A%2F%2Fexodus.desync.com%3A6969","seeders":11,"leechers":4,"uploader":"RedBaron58","files":1,"time":1395608067,"description":"The Way (2010) with Martin Sheen DVDRip x264\n &lt;a href=&quot;\nhttp://www.imdb.com/title/tt1441912/&quot; rel=&quot;nofollow&quot; target=&quot;_NEW&quot;&gt;\nhttp://www.imdb.com/title/tt1441912/&lt;/a&gt;\n\n\nPlease be patient My upload speed is limited, but I am online most the time and during the night.\nThank you for your kind comments and thumbs ups on my other torrents, your feedback is welcome.\n\n\nAbout the Film:\nThomas Avery (Martin Sheen) is an American ophthalmologist who goes to France following the death of \nhis adult son, Daniel (Emilio Estevez), killed in the Pyrenees during a storm while walking the \nCamino de Santiago (the Way of St. James), a Catholic pilgrimage route to the Cathedral of Santiago \nde Compostela in Galicia, Spain. \nTom's purpose is initially to retrieve his son's body. However, in a combination of grief and \nhomage to his son, Tom decides to walk the ancient spiritual trail where his son died, taking \nDaniel's ashes with him.\n\n\nI hope you enjoy.\n\n\nTechnical:\n\nFormat                                   : MPEG-4\nFormat profile                           : Base Media / Version 2\nCodec ID                                 : mp42\nFile size                                : 844 MiB\nDuration                                 : 2h 3mn\nOverall bit rate mode                    : Variable\nOverall bit rate                         : 958 Kbps\nEncoded date                             : UTC 2014-03-23 17:51:48\nTagged date                              : UTC 2014-03-23 18:16:48\nWriting application                      : HandBrake 0.9.8 2012071700\n\nVideo\nID                                       : 1\nFormat                                   : AVC\nFormat/Info                              : Advanced Video Codec\nFormat profile                           : &lt;a class=&quot;__cf_email__&quot; href=&quot;/cdn-cgi/l/email-protection&quot; data-cfemail=&quot;b1fcd0d8dff1fd829f81&quot;&gt;[email&amp;#160;protected]&lt;/a&gt;&lt;script cf-hash='f9e31' type=&quot;text/javascript&quot;&gt;\n/* &lt;![CDATA[ */!function(){try{var t=&quot;currentScript&quot;in document?document.currentScript:function(){for(var t=document.getElementsByTagName(&quot;script&quot;),e=t.length;e--;)if(t[e].getAttribute(&quot;cf-hash&quot;))return t[e]}();if(t&amp;&amp;t.previousSibling){var e,r,n,i,c=t.previousSibling,a=c.getAttribute(&quot;data-cfemail&quot;);if(a){for(e=&quot;&quot;,r=parseInt(a.substr(0,2),16),n=2;a.length-n;n+=2)i=parseInt(a.substr(n,2),16)^r,e+=String.fromCharCode(i);e=document.createTextNode(e),c.parentNode.replaceChild(e,c)}}}catch(u){}}();/* ]]&gt; */&lt;/script&gt;\nFormat settings, CABAC                   : Yes\nFormat settings, ReFrames                : 4 frames\nCodec ID                                 : avc1\nCodec ID/Info                            : Advanced Video Coding\nDuration                                 : 2h 3mn\nBit rate mode                            : Variable\nBit rate                                 : 800 Kbps\nWidth                                    : 720 pixels\nHeight                                   : 552 pixels\nDisplay aspect ratio                     : 1.85:1\nFrame rate mode                          : Constant\nFrame rate                               : 25.000 fps\nColor space                              : YUV\nChroma subsampling                       : 4:2:0\nBit depth                                : 8 bits\nScan type                                : Progressive\nBits/(Pixel*Frame)                       : 0.081\nStream size                              : 705 MiB (83%)\nWriting library                          : x264 core 120\nEncoding settings                        : cabac=1 / ref=1 / deblock=1:0:0\nEncoded date                             : UTC 2014-03-23 17:51:48\nTagged date                              : UTC 2014-03-23 18:16:48\nColor primaries                          : BT.601 NTSC\nTransfer characteristics                 : BT.709\nMatrix coefficients                      : BT.601\n\nAudio\nID                                       : 2\nFormat                                   : MPEG Audio\nFormat version                           : Version 1\nFormat profile                           : Layer 3\nCodec ID                                 : 69\nDuration                                 : 2h 3mn\nBit rate mode                            : Variable\nBit rate                                 : 154 Kbps\nMaximum bit rate                         : 186 Kbps\nChannel(s)                               : 2 channels\nSampling rate                            : 48.0 KHz\nCompression mode                         : Lossy\nDelay relative to video                  : 80ms\nStream size                              : 136 MiB (16%)\nLanguage                                 : English\nEncoded date                             : UTC 2014-03-23 17:51:48\nTagged date                              : UTC 2014-03-23 18:16:47","torrent":{"xt":"urn:btih:16253ca6ddfac5c22ec4fae39afb81b87643ca5b","amp;dn":"The+Way+2010+x264+RB58.mp4","amp;tr":["udp%3A%2F%2Ftracker.openbittorrent.com%3A80","udp%3A%2F%2Fopen.demonii.com%3A1337","udp%3A%2F%2Ftracker.coppersurfer.tk%3A6969","udp%3A%2F%2Fexodus.desync.com%3A6969"],"infoHash":"16253ca6ddfac5c22ec4fae39afb81b87643ca5b","infoHashBuffer":{"type":"Buffer","data":[22,37,60,166,221,250,197,194,46,196,250,227,154,251,129,184,118,67,202,91]},"announce":[],"urlList":[]}}